<?xml version="1.0" standalone="no"?>
<!DOCTYPE svg PUBLIC "-//W3C//DTD SVG 20010904//EN"
 "http://www.w3.org/TR/2001/REC-SVG-20010904/DTD/svg10.dtd">
<svg version="1.0" xmlns="http://www.w3.org/2000/svg"
 width="691.000000pt" height="361.000000pt" viewBox="0 0 691.000000 361.000000"
 preserveAspectRatio="xMidYMid meet">

<g transform="translate(0.000000,361.000000) scale(0.100000,-0.100000)"
fill="#000000" stroke="none">
<path d="M1463 2688 c-14 -41 -18 -83 -18 -188 0 -140 5 -165 51 -268 40 -88
149 -222 207 -254 16 -8 14 -2 -7 35 -95 162 -111 394 -41 589 l24 67 -34 20
c-34 20 -126 51 -151 51 -7 0 -21 -24 -31 -52z"/>
<path d="M2255 2470 c-79 -13 -113 -25 -190 -68 -68 -37 -142 -102 -189 -164
-28 -38 -27 -50 3 -24 33 28 168 76 247 87 105 15 235 0 327 -36 36 -15 74
-25 84 -23 22 4 61 98 65 158 l3 43 -50 14 c-66 18 -224 24 -300 13z"/>
<path d="M1336 2448 c4 -13 -1 -16 -30 -13 -19 2 -40 6 -46 10 -5 3 -10 1 -10
-5 0 -6 -4 -8 -10 -5 -5 3 -10 1 -10 -4 0 -6 6 -11 14 -11 7 0 21 -10 29 -22
14 -20 18 -21 26 -8 10 13 11 13 11 0 1 -9 5 -6 10 8 7 15 18 22 37 22 21 0
24 -3 13 -9 -8 -6 -17 -8 -21 -5 -4 2 -11 -1 -14 -7 -4 -6 2 -13 15 -16 11 -3
19 -11 16 -18 -2 -6 0 -18 6 -26 8 -11 9 -10 4 4 -6 19 10 24 17 5 3 -7 6 -1
6 14 1 15 -3 29 -8 32 -5 3 -7 15 -4 27 5 17 2 20 -13 17 -10 -2 -25 3 -32 12
-11 13 -11 13 -6 -2z m49 -59 c11 -17 -1 -21 -15 -4 -8 9 -8 15 -2 15 6 0 14
-5 17 -11z"/>
<path d="M1396 2317 c3 -10 9 -15 12 -12 3 3 0 11 -7 18 -10 9 -11 8 -5 -6z"/>
<path d="M1416 2277 c3 -10 9 -15 12 -12 3 3 0 11 -7 18 -10 9 -11 8 -5 -6z"/>
<path d="M2416 2207 c3 -10 9 -15 12 -12 3 3 0 11 -7 18 -10 9 -11 8 -5 -6z"/>
<path d="M2244 2158 c-4 -7 -4 -10 1 -6 4 4 14 0 22 -10 13 -15 13 -15 3 6
-12 25 -16 27 -26 10z"/>
<path d="M2291 2154 c0 -11 3 -14 6 -6 3 7 2 16 -1 19 -3 4 -6 -2 -5 -13z"/>
<path d="M2092 2111 c38 -32 79 -56 91 -53 5 1 6 -2 3 -7 -3 -5 2 -15 11 -22
12 -10 14 -10 9 -1 -4 6 -3 12 2 12 5 0 12 -12 15 -27 3 -16 24 -48 47 -72 22
-24 40 -45 40 -48 0 -11 54 -118 61 -121 4 -2 5 -11 2 -20 -6 -14 -4 -15 8 -5
12 10 14 3 14 -45 0 -32 4 -74 9 -96 l7 -39 47 6 c26 3 70 11 98 17 l50 11 -6
47 c-8 60 -41 142 -58 142 -7 0 -10 4 -7 10 13 21 -84 162 -108 157 -7 -1 -11
3 -10 10 3 14 -103 93 -125 93 -7 0 -27 9 -43 21 -16 11 -37 22 -46 24 -10 2
-30 8 -44 13 -14 6 -42 13 -63 16 l-37 6 33 -29z"/>
<path d="M3053 2132 l-43 -3 0 -240 0 -240 53 3 52 3 0 142 c0 77 2 143 5 146
3 3 48 -49 100 -115 152 -192 137 -178 187 -178 l43 0 -2 242 -3 243 -47 3
-48 3 0 -145 c0 -160 -3 -165 -53 -98 -32 42 -152 185 -182 216 -16 17 -29 21
-62 18z"/>
<path d="M3691 2124 c-19 -8 -42 -23 -51 -34 -9 -11 -19 -17 -22 -14 -9 8 -42
-45 -61 -96 -45 -120 6 -253 119 -310 70 -35 188 -35 258 0 112 57 163 184
124 313 -14 47 -82 122 -100 111 -7 -4 -10 -4 -6 1 31 34 -192 59 -261 29z
m189 -82 c50 -24 83 -92 76 -154 -10 -91 -50 -136 -130 -145 -86 -10 -140 27
-167 115 -9 33 -10 51 0 82 13 44 54 98 85 110 35 15 99 11 136 -8z"/>
<path d="M1346 2117 c3 -10 9 -15 12 -12 3 3 0 11 -7 18 -10 9 -11 8 -5 -6z"/>
<path d="M4131 2117 c-15 -15 -14 -57 2 -58 6 -1 37 -2 67 -3 30 -2 60 -3 65
-4 6 -1 9 -74 7 -202 l-4 -200 56 0 56 0 0 203 0 203 58 1 c100 2 113 8 67 33
-14 7 -23 15 -21 17 2 3 14 0 25 -6 17 -10 20 -9 15 4 -7 16 -39 21 -48 6 -7
-11 -86 -2 -102 11 -17 13 -230 8 -243 -5z"/>
<path d="M4626 2022 c-3 -41 -6 -142 -6 -224 l0 -148 55 0 55 0 0 228 c0 135
-4 221 -9 213 -7 -11 -17 -12 -49 -4 l-39 10 -7 -75z"/>
<path d="M2406 2063 c-6 -14 -5 -15 5 -6 7 7 10 15 7 18 -3 3 -9 -2 -12 -12z"/>
<path d="M2081 2053 c8 -13 17 -23 22 -23 4 0 5 -4 2 -10 -3 -5 -1 -10 6 -10
7 0 10 -3 6 -6 -3 -4 1 -20 10 -38 31 -59 55 -188 57 -299 0 -59 -1 -108 -4
-110 -7 -3 -43 -136 -45 -164 -1 -13 -5 -26 -10 -30 -4 -5 -4 -1 0 7 7 13 6
13 -7 2 -8 -7 -18 -31 -21 -55 -4 -23 -18 -64 -31 -92 -23 -47 -24 -51 -8 -64
15 -12 15 -12 -7 -6 -18 5 -22 4 -16 -5 5 -8 4 -11 -2 -7 -6 4 -25 -12 -42
-33 l-32 -40 43 17 c55 22 138 73 138 85 0 5 5 6 12 2 7 -5 9 -2 5 9 -4 10 -2
14 6 11 17 -6 93 60 113 97 14 28 12 34 -11 29 -5 -1 -6 2 -2 7 8 8 12 9 38
12 6 0 8 8 5 17 -3 8 -2 13 3 9 12 -7 35 61 25 76 -4 8 -3 9 4 5 8 -5 12 2 12
18 0 14 -5 26 -11 26 -6 0 -3 7 5 16 9 8 16 30 15 47 -2 124 -78 327 -116 313
-13 -5 -13 -4 -4 7 18 22 -51 107 -87 107 -16 0 -22 3 -15 8 14 9 9 17 -36 57
-27 24 -31 26 -20 8z m76 -648 c0 -8 -4 -12 -9 -9 -5 3 -6 10 -3 15 9 13 12
11 12 -6z"/>
<path d="M2420 2040 c0 -5 5 -10 11 -10 5 0 7 5 4 10 -3 6 -8 10 -11 10 -2 0
-4 -4 -4 -10z"/>
<path d="M4860 1832 l0 -183 53 3 52 3 0 85 0 85 117 3 117 3 -3 37 -4 37
-113 5 -114 5 -3 43 c-3 37 -6 42 -22 37 -11 -3 -28 -1 -40 5 -15 8 -20 8 -20
-2 0 -9 -3 -9 -10 2 -6 10 -10 -46 -10 -168z"/>
<path d="M5426 1996 c4 -9 1 -16 -6 -16 -7 0 -10 -7 -6 -17 6 -16 5 -16 -12 0
-18 16 -20 16 -26 2 -4 -10 -2 -14 5 -9 7 4 10 1 6 -7 -2 -8 10 -42 29 -77 31
-57 34 -69 31 -140 l-2 -77 55 0 55 0 0 82 c1 74 4 89 35 150 19 37 42 73 50
80 13 11 13 12 -2 7 -20 -7 -25 12 -5 19 9 4 9 6 0 6 -6 1 -15 -3 -18 -9 -10
-16 -35 -12 -35 5 0 13 -2 13 -14 3 -10 -9 -11 -15 -2 -20 10 -7 9 -9 -14 -12
-5 0 -17 -11 -25 -23 -21 -29 -29 -29 -43 2 -6 14 -19 25 -27 25 -9 0 -14 4
-11 9 3 5 -1 14 -9 21 -13 11 -14 10 -9 -4z"/>
<path d="M1770 1824 c0 -10 7 -11 30 -3 17 6 30 12 30 14 0 2 -13 3 -30 3 -17
-1 -30 -6 -30 -14z"/>
<path d="M1839 1795 c-75 -38 -100 -45 -190 -55 -57 -6 -124 -9 -149 -5 -63 8
-143 26 -155 35 -5 4 -29 14 -52 23 l-41 16 -30 -72 c-17 -40 -33 -86 -36
-103 l-7 -32 79 -21 c199 -54 425 2 577 141 63 58 114 119 98 117 -4 -1 -47
-21 -94 -44z"/>
</g>
</svg>
